<?xml version="1.0" encoding="UTF-8"?>
<svg version="1.1" xmlns="http://www.w3.org/2000/svg" width="1080" height="1080">
<path d="M0 0 C356.4 0 712.8 0 1080 0 C1080 356.4 1080 712.8 1080 1080 C723.6 1080 367.2 1080 0 1080 C0 723.6 0 367.2 0 0 Z " fill="#000000" transform="translate(0,0)"/>
<path d="M0 0 C16.35309982 12.61980208 23.13063048 31.23317484 25.75488281 51.10791016 C28.84139407 77.75623971 24.39555879 104.27512831 7.87988281 125.70166016 C-1.18618442 136.21706467 -13.99632795 142.81686082 -27.74511719 144.76416016 C-48.74467697 146.20348449 -66.44210952 144.68333321 -83.13574219 130.77197266 C-91.87618285 122.65584919 -97.31892431 112.9286105 -101.12011719 101.76416016 C-101.35883545 101.06556885 -101.59755371 100.36697754 -101.84350586 99.6472168 C-109.63798323 75.01779589 -108.39177907 44.95561808 -96.74511719 21.76416016 C-89.01791117 6.90414859 -77.58490551 -3.53852468 -61.74511719 -9.23583984 C-40.58732737 -15.5755386 -18.16317532 -12.862618 0 0 Z " fill="#FBFBFB" transform="translate(491.7451171875,474.23583984375)"/>
<path d="M0 0 C11.88 0 23.76 0 36 0 C36.78503906 2.57167969 37.57007813 5.14335937 38.37890625 7.79296875 C39.43871918 11.25823738 40.50035688 14.72294493 41.5625 18.1875 C41.83699982 19.08302582 42.11149963 19.97855164 42.39431763 20.9012146 C45.71829465 31.73292727 49.10962713 42.52791056 52.77001953 53.25146484 C54.51071065 58.39631715 56.03245845 63.56666332 57.4375 68.8125 C59.25449344 75.5920025 61.36565819 82.23030544 63.625 88.875 C67.2402364 99.52443079 70.59052823 110.24508186 73.875 121 C74.23624969 122.17897858 74.23624969 122.17897858 74.60479736 123.3817749 C75.29901566 125.64957051 75.99000395 127.91832162 76.6796875 130.1875 C76.88458801 130.85750031 77.08948853 131.52750061 77.30059814 132.21780396 C81 144.45524452 81 144.45524452 81 150 C71.1 150 61.2 150 51 150 C49.865625 146.060625 48.73125 142.12125 47.5625 138.0625 C47.20615479 136.83926025 46.84980957 135.61602051 46.48266602 134.35571289 C46.20092529 133.3630542 45.91918457 132.37039551 45.62890625 131.34765625 C45.34088135 130.34742432 45.05285645 129.34719238 44.75610352 128.31665039 C43.83433665 124.27331721 43.45796737 120.12170635 43 116 C17.755 116.495 17.755 116.495 -8 117 C-10.59025516 127.11142471 -10.59025516 127.11142471 -13.17553711 137.22412109 C-13.4978833 138.47789551 -13.82022949 139.73166992 -14.15234375 141.0234375 C-14.40377136 142.01210815 -14.40377136 142.01210815 -14.66027832 143.02075195 C-15.8859282 147.7718564 -15.8859282 147.7718564 -17 150 C-26.57 150 -36.14 150 -46 150 C-45.2786345 144.22907601 -44.62195003 140.32884043 -42.75 135.0625 C-40.99448028 130.04628689 -39.38173183 125.01470491 -37.91015625 119.90625 C-34.37330157 107.75085287 -30.65036276 95.6513167 -26.94458008 83.54663086 C-26.11007822 80.82029468 -25.27743772 78.09340145 -24.4465332 75.3659668 C-20.01688728 60.82738599 -15.5402906 46.31358503 -10.64811707 31.92198181 C-7.73010161 23.32436879 -5.14738333 14.63741654 -2.65087891 5.90917969 C-2 4 -2 4 0 0 Z " fill="#FBFBFB" transform="translate(943,466)"/>
<path d="M0 0 C0.84014648 0.00829834 1.68029297 0.01659668 2.54589844 0.02514648 C10.89440708 0.2523773 17.18675215 1.89264047 23.5 7.5625 C38.67454627 24.58933831 36.74820231 51.13211564 35.6875 72.4375 C34.80276295 84.76960683 31.0122814 97.97015435 21.6875 106.625 C13.9944084 112.52105669 5.2510983 114.29714929 -4.3125 113.4375 C-13.82815275 111.48557123 -20.67280066 107.37880636 -26.3125 99.4375 C-38.21753258 80.0329695 -38.45755894 50.82846731 -33.41015625 29.13671875 C-30.32756644 18.74806197 -25.69777061 9.48612408 -16.3125 3.4375 C-10.75815188 0.52129769 -6.23220387 -0.07892799 0 0 Z " fill="#020202" transform="translate(451.3125,484.5625)"/>
<path d="M0 0 C28.05 0 56.1 0 85 0 C84.49901394 7.01380477 83.99442893 14.03899752 83 21 C65.18 21 47.36 21 29 21 C29 35.85 29 50.7 29 66 C44.51 66 60.02 66 76 66 C76 72.93 76 79.86 76 87 C75 88 75 88 73.13340759 88.12025452 C72.31844315 88.11803391 71.5034787 88.11581329 70.66381836 88.11352539 C69.73001343 88.11340454 68.7962085 88.11328369 67.83410645 88.11315918 C66.84599976 88.10804321 65.85789307 88.10292725 64.83984375 88.09765625 C63.93657349 88.09664917 63.03330322 88.09564209 62.10266113 88.09460449 C58.71426126 88.08935512 55.32587941 88.07539398 51.9375 88.0625 C44.368125 88.041875 36.79875 88.02125 29 88 C29 108.79 29 129.58 29 151 C19.43 151 9.86 151 0 151 C0 101.17 0 51.34 0 0 Z " fill="#FAFAFA" transform="translate(73,466)"/>
<path d="M0 0 C28.05 0 56.1 0 85 0 C84.49901394 7.01380477 83.99442893 14.03899752 83 21 C65.18 21 47.36 21 29 21 C29 35.85 29 50.7 29 66 C44.18 66 59.36 66 75 66 C75 73.26 75 80.52 75 88 C59.82 88 44.64 88 29 88 C29 108.46 29 128.92 29 150 C19.43 150 9.86 150 0 150 C0 100.5 0 51 0 0 Z " fill="#FCFCFC" transform="translate(763,466)"/>
<path d="M0 0 C28.05 0 56.1 0 85 0 C83 20 83 20 82 21 C80.31198015 21.09353163 78.62004793 21.11744791 76.92944336 21.11352539 C75.84839828 21.11344986 74.76735321 21.11337433 73.65354919 21.11329651 C71.889515 21.10555458 71.889515 21.10555458 70.08984375 21.09765625 C68.89267227 21.0962413 67.69550079 21.09482635 66.46205139 21.09336853 C62.62050934 21.08774979 58.77902457 21.07519411 54.9375 21.0625 C52.34049563 21.05748741 49.74349035 21.05292409 47.14648438 21.04882812 C40.76428284 21.03862313 34.3822059 21.01905136 28 21 C28 35.85 28 50.7 28 66 C43.51 66 59.02 66 75 66 C75 73.26 75 80.52 75 88 C59.82 88 44.64 88 29 88 C29 108.46 29 128.92 29 150 C19.43 150 9.86 150 0 150 C0 100.5 0 51 0 0 Z " fill="#FCFCFC" transform="translate(601,466)"/>
<path d="M0 0 C28.05 0 56.1 0 85 0 C84.01 6.93 83.02 13.86 82 21 C64.18 21 46.36 21 28 21 C28 35.85 28 50.7 28 66 C43.51 66 59.02 66 75 66 C75 73.26 75 80.52 75 88 C59.82 88 44.64 88 29 88 C29 108.46 29 128.92 29 150 C19.43 150 9.86 150 0 150 C0 100.5 0 51 0 0 Z " fill="#FCFCFC" transform="translate(236,466)"/>
<path d="M0 0 C0.66 0 1.32 0 2 0 C3.3563621 4.67169859 4.70693631 9.3450226 6.05273438 14.01977539 C6.50892471 15.60158664 6.96654974 17.182985 7.42578125 18.76391602 C10.0682141 27.86466337 12.56463064 36.96588037 14.64715576 46.21287537 C15.94224839 51.94111133 17.55369956 57.52809895 19.265625 63.14453125 C20 66 20 66 20 70 C7.46 70 -5.08 70 -18 70 C-15.68207385 59.56933235 -13.39479083 49.27691402 -10.5625 39 C-10.1135437 37.35088623 -10.1135437 37.35088623 -9.65551758 35.66845703 C-7.66333589 28.36538843 -5.64978943 21.06779259 -3.59790039 13.78125 C-2.31337118 9.2059977 -1.1354947 4.6139106 0 0 Z " fill="#060606" transform="translate(959,490)"/>
</svg>
